<?xml version="1.0" encoding="UTF-8"?>
<svg xmlns="http://www.w3.org/2000/svg" version="1.1" viewBox="0 0 128 128">
  <defs>
    <style>
      .cls-1 {
        fill: #666;
      }
    </style>
  </defs>
  <!-- Generator: Adobe Illustrator 28.7.5, SVG Export Plug-In . SVG Version: 1.2.0 Build 176)  -->
  <g>
    <g id="_图层_1" data-name="图层_1">
      <g id="_图层_1-2" data-name="_图层_1">
        <g id="_图层_1-2">
          <path class="cls-1" d="M17.5,33.1c2.6-2.7,7.1-2.7,9.8,0l36.7,36.7,36.6-36.7c2.6-2.7,7.1-2.8,9.8-.2s2.8,7.1.2,9.8c0,0,0,.2-.2.2l-36.7,36.7,36.7,36.7c2.6,2.7,2.5,7.1-.2,9.8-2.6,2.5-7,2.5-9.6,0l-36.7-36.7-36.7,36.7c-2.7,2.6-7.1,2.5-9.8-.2-2.5-2.6-2.5-7,0-9.6l36.7-36.7L17.5,42.8c-2.7-2.7-2.7-7.1,0-9.8h0Z"/>
        </g>
      </g>
    </g>
  </g>
</svg>